<svg width="56" height="56" viewBox="0 0 56 56" fill="none" xmlns="http://www.w3.org/2000/svg">
<g filter="url(#filter0_d_23_19)">
<rect x="0.736694" y="26.1166" width="36.0764" height="36.4202" rx="10" transform="rotate(-45.402 0.736694 26.1166)" fill="#4FFF40"/>
</g>
<path d="M17.736 25.858C17.736 24.2633 18.0657 22.845 18.725 21.603C19.3997 20.3457 20.3503 19.372 21.577 18.682C22.8037 17.9767 24.2143 17.624 25.809 17.624C27.833 17.624 29.535 18.1683 30.915 19.257C32.295 20.3303 33.1843 21.7947 33.583 23.65H28.73C28.4387 23.0367 28.0323 22.569 27.511 22.247C27.005 21.925 26.4147 21.764 25.74 21.764C24.6973 21.764 23.8617 22.1397 23.233 22.891C22.6197 23.627 22.313 24.616 22.313 25.858C22.313 27.1153 22.6197 28.1197 23.233 28.871C23.8617 29.607 24.6973 29.975 25.74 29.975C26.4147 29.975 27.005 29.814 27.511 29.492C28.0323 29.17 28.4387 28.7023 28.73 28.089H33.583C33.1843 29.9443 32.295 31.4163 30.915 32.505C29.535 33.5783 27.833 34.115 25.809 34.115C24.2143 34.115 22.8037 33.77 21.577 33.08C20.3503 32.3747 19.3997 31.401 18.725 30.159C18.0657 28.9017 17.736 27.468 17.736 25.858ZM37.2897 34.168V34.928H34.6977V34.168H37.2897Z" fill="white"/>
<path d="M39 26C39 26.5523 31.5523 27 31 27C30.4477 27 30 26.5523 30 26C30 25.4477 30.4477 25 31 25C31.5523 25 39 25.4477 39 26Z" fill="white"/>
<defs>
<filter id="filter0_d_23_19" x="0.878479" y="0.570129" width="54.9797" height="54.9763" filterUnits="userSpaceOnUse" color-interpolation-filters="sRGB">
<feFlood flood-opacity="0" result="BackgroundImageFix"/>
<feColorMatrix in="SourceAlpha" type="matrix" values="0 0 0 0 0 0 0 0 0 0 0 0 0 0 0 0 0 0 127 0" result="hardAlpha"/>
<feMorphology radius="1" operator="erode" in="SourceAlpha" result="effect1_dropShadow_23_19"/>
<feOffset dx="2" dy="2"/>
<feGaussianBlur stdDeviation="3.5"/>
<feComposite in2="hardAlpha" operator="out"/>
<feColorMatrix type="matrix" values="0 0 0 0 0 0 0 0 0 0 0 0 0 0 0 0 0 0 0.25 0"/>
<feBlend mode="normal" in2="BackgroundImageFix" result="effect1_dropShadow_23_19"/>
<feBlend mode="normal" in="SourceGraphic" in2="effect1_dropShadow_23_19" result="shape"/>
</filter>
</defs>
</svg>
